<?xml version="1.0" encoding="UTF-8" standalone="no"?>
<svg
   xmlns:dc="http://purl.org/dc/elements/1.1/"
   xmlns:cc="http://creativecommons.org/ns#"
   xmlns:rdf="http://www.w3.org/1999/02/22-rdf-syntax-ns#"
   xmlns:svg="http://www.w3.org/2000/svg"
   xmlns="http://www.w3.org/2000/svg"
   xmlns:sodipodi="http://sodipodi.sourceforge.net/DTD/sodipodi-0.dtd"
   xmlns:inkscape="http://www.inkscape.org/namespaces/inkscape"
   version="1.1"
   id="n_xB0_1"
   x="0px"
   y="0px"
   viewBox="0 0 514 239"
   style="enable-background:new 0 0 514 239;"
   xml:space="preserve"
   sodipodi:docname="logo-blanc.svg"
   inkscape:version="1.0.2 (e86c8708, 2021-01-15)"><metadata
   id="metadata937"><rdf:RDF><cc:Work
       rdf:about=""><dc:format>image/svg+xml</dc:format><dc:type
         rdf:resource="http://purl.org/dc/dcmitype/StillImage" /><dc:title></dc:title></cc:Work></rdf:RDF></metadata><defs
   id="defs935">
		
		
		
		
	
		
		
	
			
			
			
		
			
			
		</defs><sodipodi:namedview
   pagecolor="#ffffff"
   bordercolor="#666666"
   borderopacity="1"
   objecttolerance="10"
   gridtolerance="10"
   guidetolerance="10"
   inkscape:pageopacity="0"
   inkscape:pageshadow="2"
   inkscape:window-width="1438"
   inkscape:window-height="847"
   id="namedview933"
   showgrid="false"
   inkscape:zoom="1.2175327"
   inkscape:cx="238.05483"
   inkscape:cy="55.291951"
   inkscape:window-x="0"
   inkscape:window-y="25"
   inkscape:window-maximized="0"
   inkscape:current-layer="g930" />
<style
   type="text/css"
   id="style886">
	.st0{fill:#FFFFFF;}
	.st1{fill:#FFFFFF;}
</style>
<g
   id="g930">
	
	
	
	
	
	
	
	
	
	<path
   class="st0"
   d="m 129.9,203.1 c 2.4,-3.2 3.6,-6.9 3.6,-11.1 0,-4.8 -1.8,-8.9 -5.2,-12.4 -3.3,-3.4 -7.5,-5.2 -12.4,-5.2 H 98.6 c -2.4,0 -4.1,1.7 -4.1,4.1 v 55.7 c 0,2.4 1.7,4.1 4.1,4.1 h 19.3 c 5,0 9.4,-1.8 13,-5.4 3.6,-3.6 5.5,-8 5.5,-13 v -2.5 c 0,-3.6 -1,-7.1 -3,-10.2 -1,-1.5 -2.2,-2.9 -3.5,-4.1 m -10.3,-6.5 c -1.1,1.1 -2.6,1.7 -4.5,1.7 h -8.2 v -11.6 h 9.1 c 1.6,0 2.7,0.4 3.8,1.5 1.1,1.1 1.6,2.2 1.6,3.8 -0.1,1.9 -0.6,3.3 -1.8,4.6 m -12.8,13.9 h 10.3 c 1.9,0 3.5,0.7 4.9,2 1.4,1.4 2.1,3.1 2.1,5 v 2.5 c 0,1.6 -0.6,3 -1.8,4.3 -1.2,1.2 -2.6,1.8 -4.4,1.8 h -11.1 z"
   id="path888"
   style="fill:#ffffff;fill-opacity:1;stroke:none;stroke-opacity:1;stroke-width:2.5;stroke-miterlimit:4;stroke-dasharray:none" /><path
   class="st0"
   d="m 168.1,173.6 c -5.9,0 -11.1,2.1 -15.3,6.3 -4.2,4.2 -6.3,9.3 -6.3,15.3 v 22.7 c 0,5.9 2.1,11.1 6.3,15.3 4.2,4.2 9.3,6.3 15.3,6.3 6,0 11.1,-2.1 15.3,-6.3 4.2,-4.2 6.3,-9.3 6.3,-15.3 v -22.7 c 0,-5.9 -2.1,-11.1 -6.3,-15.3 -4.2,-4.2 -9.3,-6.3 -15.3,-6.3 m -9.3,21.5 c 0,-2.6 0.9,-4.8 2.8,-6.6 1.8,-1.8 4,-2.7 6.6,-2.7 2.6,0 4.8,0.9 6.6,2.7 1.9,1.9 2.8,4 2.8,6.6 v 22.7 c 0,2.7 -0.9,4.7 -2.8,6.6 -1.9,1.9 -4,2.8 -6.6,2.8 -2.6,0 -4.7,-0.9 -6.6,-2.8 -1.9,-1.8 -2.7,-3.9 -2.7,-6.5 z"
   id="path890"
   style="fill:#ffffff;fill-opacity:1;stroke:none;stroke-opacity:1;stroke-width:2.5;stroke-miterlimit:4;stroke-dasharray:none" /><path
   class="st0"
   d="m 276.3,174.4 h -13.8 c -2.4,0 -4.1,1.7 -4.1,4.1 v 55.7 c 0,2.4 1.7,4.1 4.1,4.1 h 15.8 c 5.8,0 10.8,-2.1 14.9,-6.2 4.1,-4.1 6.2,-9.1 6.2,-14.9 v -19.9 c 0,-6.3 -2.3,-11.8 -6.8,-16.3 -4.5,-4.3 -9.9,-6.6 -16.3,-6.6 m 2.1,51.7 h -7.7 v -39.4 h 5.6 c 3,0 5.5,1 7.6,3.2 2.2,2.2 3.2,4.7 3.2,7.6 v 19.8 c 0,2.5 -0.8,4.4 -2.6,6.2 -1.7,1.7 -3.7,2.6 -6.1,2.6"
   id="path892"
   style="fill:#ffffff;fill-opacity:1;stroke:none;stroke-opacity:1;stroke-width:2.5;stroke-miterlimit:4;stroke-dasharray:none" /><path
   class="st0"
   d="m 345,226.1 h -20.3 v -15.7 h 16.9 c 2.3,0 4,-1.8 4,-4.1 v -4 c 0,-2.4 -1.7,-4.1 -4,-4.1 h -16.9 v -11.5 h 19.8 c 2.3,0 4.1,-1.8 4.1,-4.1 v -4 c 0,-2.4 -1.7,-4.1 -4.1,-4.1 h -27.9 c -2.4,0 -4.1,1.7 -4.1,4.1 v 55.7 c 0,2.4 1.7,4.1 4.1,4.1 H 345 c 2.4,0 4.1,-1.7 4.1,-4.1 v -4 c 0,-2.5 -1.7,-4.2 -4.1,-4.2"
   id="path894"
   style="fill:#ffffff;fill-opacity:1;stroke:none;stroke-opacity:1;stroke-width:2.5;stroke-miterlimit:4;stroke-dasharray:none" /><path
   class="st0"
   d="m 390.7,177.3 c -0.6,-1.8 -2.1,-2.9 -3.9,-2.9 h -7.4 c -1.8,0 -3.3,1.1 -3.9,2.9 l -16.9,55.2 c -0.2,0.5 -0.3,1 -0.3,1.6 0,2.4 1.7,4.1 4.1,4.1 h 4.2 c 1.9,0 3.5,-1.2 3.9,-2.9 l 5,-16.2 h 15.2 l 5,16.3 0.1,0.2 c 0.7,1.6 2.1,2.6 3.9,2.6 h 4.2 c 2.3,0 4.1,-1.8 4.1,-4.1 0,-0.6 -0.1,-1.1 -0.3,-1.5 z m -3,29.6 h -9.1 l 4.5,-15.3 z"
   id="path896"
   style="fill:#ffffff;fill-opacity:1;stroke:none;stroke-opacity:1;stroke-width:2.5;stroke-miterlimit:4;stroke-dasharray:none" /><path
   class="st0"
   d="m 453.6,174.4 h -4 c -2.4,0 -4.1,1.7 -4.1,4.1 v 40.6 c 0,2.3 -0.7,4.1 -2.3,5.6 -1.6,1.6 -3.4,2.4 -5.6,2.4 -2.2,0 -4,-0.8 -5.7,-2.4 -1.5,-1.5 -2.3,-3.4 -2.3,-5.6 v -40.6 c 0,-2.4 -1.7,-4.1 -4.1,-4.1 h -4 c -2.4,0 -4.1,1.7 -4.1,4.1 v 40.6 c 0,5.6 2,10.4 5.9,14.3 3.9,3.9 8.8,5.9 14.3,5.9 5.6,0 10.4,-2 14.3,-6 3.9,-4 5.8,-8.8 5.8,-14.3 v -40.6 c 0,-2.3 -1.7,-4 -4.1,-4"
   id="path898"
   style="fill:#ffffff;fill-opacity:1;stroke:none;stroke-opacity:1;stroke-width:2.5;stroke-miterlimit:4;stroke-dasharray:none" /><path
   class="st0"
   d="m 496,206.2 14.3,-26.1 0.3,-0.7 c 0.4,-1.7 -0.2,-2.9 -0.7,-3.6 -0.4,-0.6 -1.5,-1.5 -3.2,-1.5 h -4.1 c -1.7,0 -3.1,0.9 -3.7,2.3 l -9.5,17.4 -9.5,-17.3 c -0.6,-1.5 -2,-2.4 -3.7,-2.4 h -4.1 c -1.8,0 -2.8,0.9 -3.2,1.5 -0.5,0.7 -1.1,1.9 -0.7,3.7 l 0.3,0.7 14.2,26 -14.2,25.9 -0.2,0.5 c -0.6,1.9 0.1,3.2 0.5,3.8 0.4,0.6 1.5,1.6 3.3,1.6 h 4.2 c 1.6,0 3,-0.9 3.7,-2.4 l 9.4,-17.2 9.3,17.1 c 0.7,1.5 2.1,2.5 3.7,2.5 h 4.2 c 1.9,0 2.9,-1 3.3,-1.6 0.5,-0.6 1.1,-1.9 0.5,-3.9 z"
   id="path900"
   style="fill:#ffffff;fill-opacity:1;stroke:none;stroke-opacity:1;stroke-width:2.5;stroke-miterlimit:4;stroke-dasharray:none" /><path
   class="st0"
   d="m 245,232.6 -11.1,-21.2 c 1.4,-0.8 2.7,-1.8 3.9,-3 3.5,-3.5 5.3,-7.8 5.3,-12.7 v -3.2 c 0,-5 -1.8,-9.3 -5.3,-12.8 -3.5,-3.5 -7.7,-5.2 -12.7,-5.2 h -18 c -2.4,0 -4.1,1.7 -4.1,4.1 v 55.7 c 0,2.4 1.7,4.1 4.1,4.1 h 4 c 2.3,0 4.1,-1.8 4.1,-4.1 v -20.6 h 6.5 l 11.5,22 c 0.7,1.6 2.1,2.5 3.7,2.5 h 4.2 c 1.9,0 2.9,-1 3.3,-1.6 0.5,-0.6 1.1,-1.9 0.5,-3.8 0.1,-0.1 0.1,-0.1 0.1,-0.2 m -14.2,-40.1 v 3.2 c 0,1.6 -0.5,2.8 -1.7,4 -1.2,1.2 -2.4,1.7 -4,1.7 h -9.8 v -14.7 h 9.8 c 1.6,0 2.9,0.5 4,1.6 1.2,1.3 1.7,2.5 1.7,4.2"
   id="path902"
   style="fill:#ffffff;fill-opacity:1;stroke:none;stroke-opacity:1;stroke-width:2.5;stroke-miterlimit:4;stroke-dasharray:none" /><path
   class="st0"
   d="m 52.9,203.5 h -1.3 c -0.3,0 -0.4,-0.2 -0.4,-0.4 v -0.4 c 0,-0.3 -0.2,-0.4 -0.4,-0.4 -0.1,0 -0.2,0 -0.2,0.1 -1.5,1.2 -3.1,1.7 -4.8,1.7 -3.1,0 -5.5,-1.6 -7.3,-4.8 -0.2,-0.4 -0.4,-0.9 -0.4,-1.4 v -7.5 c 0,-3 1.5,-5.3 4.5,-7.1 0.1,-0.1 0.2,-0.1 0.3,-0.1 2.6,-0.7 5,-0.5 6.9,0.8 0.1,0 0.2,0.1 0.3,0.1 0.3,0 0.4,-0.1 0.4,-0.4 V 175 c 0,-0.3 0.2,-0.4 0.4,-0.4 H 53 c 0.3,0 0.4,0.1 0.4,0.4 v 28.1 c -0.1,0.3 -0.2,0.4 -0.5,0.4 m -2.6,-13.2 c 0,-1.3 -0.4,-2.4 -1.4,-3.4 -1,-1 -2.1,-1.4 -3.4,-1.4 -1.3,0 -2.5,0.4 -3.4,1.4 -0.9,0.9 -1.4,2 -1.4,3.4 v 6.1 c 0,1.3 0.5,2.4 1.4,3.4 0.9,0.9 2.1,1.4 3.4,1.4 1.3,0 2.4,-0.5 3.4,-1.4 1,-1 1.4,-2.1 1.4,-3.4 z"
   id="path904"
   style="fill:#ffffff;fill-opacity:1;stroke:none;stroke-opacity:1;stroke-width:2.5;stroke-miterlimit:4;stroke-dasharray:none" /><path
   class="st0"
   d="M 72.5,194.7 H 61.6 c -0.3,0 -0.4,0.2 -0.4,0.4 v 1.2 c 0,1.4 0.5,2.5 1.4,3.4 1,1 2.1,1.4 3.4,1.4 1.7,0 3.2,-0.5 4.6,-1.4 0.2,-0.2 0.4,-0.1 0.6,0.1 l 1.2,1.7 c 0.2,0.2 0.1,0.4 -0.1,0.6 -2.3,1.7 -5.1,2.3 -8.2,1.8 -0.5,-0.1 -0.9,-0.2 -1.3,-0.5 -2.9,-1.8 -4.4,-4.1 -4.4,-7.1 v -8 c 0,-0.4 0.1,-0.8 0.3,-1.1 1.7,-3 4.1,-4.6 7,-4.6 2,0 3.8,0.7 5.2,2.2 1.4,1.5 2.1,3.1 2.1,5.1 v 4.3 c -0.1,0.3 -0.2,0.5 -0.5,0.5 M 70,190 c 0,-1.2 -0.4,-2.2 -1.3,-3.1 -0.9,-0.9 -1.9,-1.3 -3.1,-1.3 -1.2,0 -2.2,0.4 -3.1,1.3 -0.9,0.9 -1.3,1.9 -1.3,3.1 v 1.4 c 0,0.3 0.2,0.4 0.4,0.4 h 7.9 c 0.3,0 0.4,-0.2 0.4,-0.4 V 190 Z"
   id="path906"
   style="fill:#ffffff;fill-opacity:1;stroke:none;stroke-opacity:1;stroke-width:2.5;stroke-miterlimit:4;stroke-dasharray:none" /><path
   class="st1"
   d="M 200.4,114.9 V 90.3363 60.8 c 0,-1.4 -0.9,-2.1 -2.5,-2.1 h -13.4 c -1.8,0 -2.5,-0.8 -2.5,-2.3 V 45.7 c 0,-1.4 0.7,-2.1 2.5,-2.1 h 13.4 c 1.6,0 2.5,-0.8 2.5,-2.3 V 15.6 c 0,-1.4 0.9,-2.3 2.5,-2.3 h 11.8 c 1.6,0 2.5,0.8 2.5,2.3 v 25.8 c 0,1.4 0.9,2.3 2.5,2.3 H 255 c 1.8,0 2.5,0.6 2.5,2.1 v 10.8 c 0,1.4 -0.7,2.3 -2.5,2.3 h -35.3 c -1.6,0 -2.5,0.6 -2.5,2.1 v 54.1"
   id="path910"
   style="fill:none;fill-opacity:1;stroke:#ffffff;stroke-opacity:1;stroke-width:2.5;stroke-miterlimit:4;stroke-dasharray:none"
   sodipodi:nodetypes="ccssssssssssssssssssssc" /><path
   class="st0"
   d="m 217.3,88.3 0.1,29.5 c -0.2,7.3 0.8,13.4 2.8,18.2 2,4.8 7,7.2 14.8,7.2 3,0 6.7,-0.6 11.1,-1.8 4.4,-1.2 9.5,-3 15.2,-5.4 0.2,0.6 0.3,1.1 0.3,1.5 0,0.3 0.1,0.7 0.2,1.1 -3.2,3.1 -9,6.2 -17.5,9.2 -8.5,3 -16.1,4.6 -23,4.6 -5.9,0 -11,-1.8 -15.2,-5.4 -4.2,-3.6 -6.3,-9.9 -6.3,-18.8 v -12.4 l 0.7,-19.2"
   id="path912"
   style="fill:#ffffff;fill-opacity:1;stroke:#ffffff;stroke-opacity:1;stroke-width:2.5;stroke-miterlimit:4;stroke-dasharray:none" /><path
   class="st0"
   d="M 87.3,81.6 V 116 c 0,6.1 2.3,11.3 7.1,15.7 4.8,4.4 10.3,6.5 17.2,6.5 6.7,0 12.4,-2.1 17,-6.5 4.8,-4.4 7.3,-9.6 7.3,-15.7 V 46 c 0,-1.5 0.7,-2.1 2.3,-2.1 h 11.9 c 1.6,0 2.5,0.6 2.5,2.1 v 70 c 0,10.3 -4.1,19.1 -12.2,26.4 -8.1,7.3 -17.7,11.1 -28.9,11.1 -11.2,0 -21.1,-3.8 -29.1,-11.1 -8,-7.3 -11.9,-16.1 -11.9,-26.4 V 81.6 Z"
   id="path914"
   style="fill:#ffffff;fill-opacity:1;stroke:#ffffff;stroke-opacity:1;stroke-width:2.5;stroke-miterlimit:4;stroke-dasharray:none" /><path
   class="st1"
   d="m 87.3,46.6 c 0,-2.4 -1.9,-3.9 -3.5,-3.9 -2.4,0 -9.5,1.1 -13.3,1.1 -11.6,0 -12.8,-0.4 -15.2,-0.4 -1.9,0 -3.6,1.3 -3.6,3.7 0,2.4 1.7,3.9 3.6,3.9 2.4,0 3.6,-0.9 15.2,-0.9 v 31.5 h 16.8 z"
   id="path916"
   style="fill:none;fill-opacity:1;stroke:#ffffff;stroke-opacity:1;stroke-width:2.5;stroke-miterlimit:4;stroke-dasharray:none" /><path
   class="st1"
   d="M 17.1,33.8 C 8.4,33.8 2,25.1 2,17.1 2,9.5 9.5,2 17.1,2 c 8.1,0 16.4,6.7 16.4,15.1 0,9.4 -7,16.7 -16.4,16.7 z"
   id="path920"
   style="fill:none;fill-opacity:1;stroke:#ffffff;stroke-opacity:1;stroke-width:2.5;stroke-miterlimit:4;stroke-dasharray:none" /><path
   class="st0"
   d="m 30.2,77.6 v 70.8 c 0,1.5 -0.8,2.3 -2.3,2.3 H 17.2 c -1.7,0 -2.3,-0.8 -2.3,-2.3 V 87.8 Z"
   id="path922"
   style="fill:#ffffff;fill-opacity:1;stroke:#ffffff;stroke-opacity:1;stroke-width:2.5;stroke-miterlimit:4;stroke-dasharray:none" /><polygon
   class="st1"
   points="1.3,41.4 1.3,55.2 12.9,55.2 12.9,85.8 28.2,75.6 28.2,41.4 "
   id="polygon924"
   style="fill:none;fill-opacity:1;stroke:#ffffff;stroke-opacity:1;stroke-width:2.5;stroke-miterlimit:4;stroke-dasharray:none"
   transform="translate(2,2)" />
</g>
</svg>
