<?xml version="1.0" encoding="utf-8"?>
<!-- Generator: $$$/GeneralStr/196=Adobe Illustrator 27.6.0, SVG Export Plug-In . SVG Version: 6.00 Build 0)  -->
<svg version="1.1" id="n_xB0_1" xmlns="http://www.w3.org/2000/svg" xmlns:xlink="http://www.w3.org/1999/xlink" x="0px" y="0px"
	 viewBox="0 0 514 239" style="enable-background:new 0 0 514 239;" xml:space="preserve">
<style type="text/css">
	.st0{fill:#3B1C13;}
	.st1{fill:#009DE0;}
</style>
<g>
	<path class="st0" d="M127.9,201.1c2.4-3.2,3.6-6.9,3.6-11.1c0-4.8-1.8-8.9-5.2-12.4c-3.3-3.4-7.5-5.2-12.4-5.2H96.6
		c-2.4,0-4.1,1.7-4.1,4.1v55.7c0,2.4,1.7,4.1,4.1,4.1h19.3c5,0,9.4-1.8,13-5.4c3.6-3.6,5.5-8,5.5-13v-2.5c0-3.6-1-7.1-3-10.2
		C130.4,203.7,129.2,202.3,127.9,201.1 M117.6,194.6c-1.1,1.1-2.6,1.7-4.5,1.7h-8.2v-11.6h9.1c1.6,0,2.7,0.4,3.8,1.5
		c1.1,1.1,1.6,2.2,1.6,3.8C119.3,191.9,118.8,193.3,117.6,194.6 M104.8,208.5h10.3c1.9,0,3.5,0.7,4.9,2c1.4,1.4,2.1,3.1,2.1,5v2.5
		c0,1.6-0.6,3-1.8,4.3c-1.2,1.2-2.6,1.8-4.4,1.8h-11.1V208.5z"/>
	<path class="st0" d="M166.1,171.6c-5.9,0-11.1,2.1-15.3,6.3c-4.2,4.2-6.3,9.3-6.3,15.3v22.7c0,5.9,2.1,11.1,6.3,15.3
		s9.3,6.3,15.3,6.3s11.1-2.1,15.3-6.3c4.2-4.2,6.3-9.3,6.3-15.3v-22.7c0-5.9-2.1-11.1-6.3-15.3C177.2,173.7,172.1,171.6,166.1,171.6
		 M156.8,193.1c0-2.6,0.9-4.8,2.8-6.6c1.8-1.8,4-2.7,6.6-2.7s4.8,0.9,6.6,2.7c1.9,1.9,2.8,4,2.8,6.6v22.7c0,2.7-0.9,4.7-2.8,6.6
		c-1.9,1.9-4,2.8-6.6,2.8c-2.6,0-4.7-0.9-6.6-2.8c-1.9-1.8-2.7-3.9-2.7-6.5L156.8,193.1L156.8,193.1z"/>
	<path class="st0" d="M274.3,172.4h-13.8c-2.4,0-4.1,1.7-4.1,4.1v55.7c0,2.4,1.7,4.1,4.1,4.1h15.8c5.8,0,10.8-2.1,14.9-6.2
		c4.1-4.1,6.2-9.1,6.2-14.9v-19.9c0-6.3-2.3-11.8-6.8-16.3C286.1,174.7,280.7,172.4,274.3,172.4 M276.4,224.1h-7.7v-39.4h5.6
		c3,0,5.5,1,7.6,3.2c2.2,2.2,3.2,4.7,3.2,7.6v19.8c0,2.5-0.8,4.4-2.6,6.2C280.8,223.2,278.8,224.1,276.4,224.1"/>
	<path class="st0" d="M343,224.1h-20.3v-15.7h16.9c2.3,0,4-1.8,4-4.1v-4c0-2.4-1.7-4.1-4-4.1h-16.9v-11.5h19.8
		c2.3,0,4.1-1.8,4.1-4.1v-4c0-2.4-1.7-4.1-4.1-4.1h-27.9c-2.4,0-4.1,1.7-4.1,4.1v55.7c0,2.4,1.7,4.1,4.1,4.1H343
		c2.4,0,4.1-1.7,4.1-4.1v-4C347.1,225.8,345.4,224.1,343,224.1"/>
	<path class="st0" d="M388.7,175.3c-0.6-1.8-2.1-2.9-3.9-2.9h-7.4c-1.8,0-3.3,1.1-3.9,2.9l-16.9,55.2c-0.2,0.5-0.3,1-0.3,1.6
		c0,2.4,1.7,4.1,4.1,4.1h4.2c1.9,0,3.5-1.2,3.9-2.9l5-16.2h15.2l5,16.3l0.1,0.2c0.7,1.6,2.1,2.6,3.9,2.6h4.2c2.3,0,4.1-1.8,4.1-4.1
		c0-0.6-0.1-1.1-0.3-1.5L388.7,175.3z M385.7,204.9h-9.1l4.5-15.3L385.7,204.9z"/>
	<path class="st0" d="M451.6,172.4h-4c-2.4,0-4.1,1.7-4.1,4.1v40.6c0,2.3-0.7,4.1-2.3,5.6c-1.6,1.6-3.4,2.4-5.6,2.4
		c-2.2,0-4-0.8-5.7-2.4c-1.5-1.5-2.3-3.4-2.3-5.6v-40.6c0-2.4-1.7-4.1-4.1-4.1h-4c-2.4,0-4.1,1.7-4.1,4.1v40.6
		c0,5.6,2,10.4,5.9,14.3c3.9,3.9,8.8,5.9,14.3,5.9c5.6,0,10.4-2,14.3-6c3.9-4,5.8-8.8,5.8-14.3v-40.6
		C455.7,174.1,454,172.4,451.6,172.4"/>
	<path class="st0" d="M494,204.2l14.3-26.1l0.3-0.7c0.4-1.7-0.2-2.9-0.7-3.6c-0.4-0.6-1.5-1.5-3.2-1.5h-4.1c-1.7,0-3.1,0.9-3.7,2.3
		l-9.5,17.4l-9.5-17.3c-0.6-1.5-2-2.4-3.7-2.4h-4.1c-1.8,0-2.8,0.9-3.2,1.5c-0.5,0.7-1.1,1.9-0.7,3.7l0.3,0.7l14.2,26l-14.2,25.9
		l-0.2,0.5c-0.6,1.9,0.1,3.2,0.5,3.8c0.4,0.6,1.5,1.6,3.3,1.6h4.2c1.6,0,3-0.9,3.7-2.4l9.4-17.2l9.3,17.1c0.7,1.5,2.1,2.5,3.7,2.5
		h4.2c1.9,0,2.9-1,3.3-1.6c0.5-0.6,1.1-1.9,0.5-3.9L494,204.2z"/>
	<path class="st0" d="M243,230.6l-11.1-21.2c1.4-0.8,2.7-1.8,3.9-3c3.5-3.5,5.3-7.8,5.3-12.7v-3.2c0-5-1.8-9.3-5.3-12.8
		c-3.5-3.5-7.7-5.2-12.7-5.2h-18c-2.4,0-4.1,1.7-4.1,4.1v55.7c0,2.4,1.7,4.1,4.1,4.1h4c2.3,0,4.1-1.8,4.1-4.1v-20.6h6.5l11.5,22
		c0.7,1.6,2.1,2.5,3.7,2.5h4.2c1.9,0,2.9-1,3.3-1.6c0.5-0.6,1.1-1.9,0.5-3.8C243,230.7,243,230.7,243,230.6 M228.8,190.5v3.2
		c0,1.6-0.5,2.8-1.7,4c-1.2,1.2-2.4,1.7-4,1.7h-9.8v-14.7h9.8c1.6,0,2.9,0.5,4,1.6C228.3,187.6,228.8,188.8,228.8,190.5"/>
	<g>
		<path class="st0" d="M50.9,201.5h-1.3c-0.3,0-0.4-0.2-0.4-0.4v-0.4c0-0.3-0.2-0.4-0.4-0.4c-0.1,0-0.2,0-0.2,0.1
			c-1.5,1.2-3.1,1.7-4.8,1.7c-3.1,0-5.5-1.6-7.3-4.8c-0.2-0.4-0.4-0.9-0.4-1.4v-7.5c0-3,1.5-5.3,4.5-7.1c0.1-0.1,0.2-0.1,0.3-0.1
			c2.6-0.7,5-0.5,6.9,0.8c0.1,0,0.2,0.1,0.3,0.1c0.3,0,0.4-0.1,0.4-0.4V173c0-0.3,0.2-0.4,0.4-0.4h2.1c0.3,0,0.4,0.1,0.4,0.4v28.1
			C51.3,201.4,51.2,201.5,50.9,201.5 M48.3,188.3c0-1.3-0.4-2.4-1.4-3.4c-1-1-2.1-1.4-3.4-1.4c-1.3,0-2.5,0.4-3.4,1.4
			c-0.9,0.9-1.4,2-1.4,3.4v6.1c0,1.3,0.5,2.4,1.4,3.4c0.9,0.9,2.1,1.4,3.4,1.4c1.3,0,2.4-0.5,3.4-1.4c1-1,1.4-2.1,1.4-3.4V188.3z"/>
		<path class="st0" d="M70.5,192.7H59.6c-0.3,0-0.4,0.2-0.4,0.4v1.2c0,1.4,0.5,2.5,1.4,3.4c1,1,2.1,1.4,3.4,1.4
			c1.7,0,3.2-0.5,4.6-1.4c0.2-0.2,0.4-0.1,0.6,0.1l1.2,1.7c0.2,0.2,0.1,0.4-0.1,0.6c-2.3,1.7-5.1,2.3-8.2,1.8
			c-0.5-0.1-0.9-0.2-1.3-0.5c-2.9-1.8-4.4-4.1-4.4-7.1v-8c0-0.4,0.1-0.8,0.3-1.1c1.7-3,4.1-4.6,7-4.6c2,0,3.8,0.7,5.2,2.2
			s2.1,3.1,2.1,5.1v4.3C70.9,192.5,70.8,192.7,70.5,192.7 M68,188c0-1.2-0.4-2.2-1.3-3.1s-1.9-1.3-3.1-1.3c-1.2,0-2.2,0.4-3.1,1.3
			c-0.9,0.9-1.3,1.9-1.3,3.1v1.4c0,0.3,0.2,0.4,0.4,0.4h7.9c0.3,0,0.4-0.2,0.4-0.4V188z"/>
	</g>
	<g>
		<path class="st1" d="M198.4,112.9V58.8c0-1.4-0.9-2.1-2.5-2.1h-13.4c-1.8,0-2.5-0.8-2.5-2.3V43.7c0-1.4,0.7-2.1,2.5-2.1h13.4
			c1.6,0,2.5-0.8,2.5-2.3V13.6c0-1.4,0.9-2.3,2.5-2.3h11.8c1.6,0,2.5,0.8,2.5,2.3v25.8c0,1.4,0.9,2.3,2.5,2.3H253
			c1.8,0,2.5,0.6,2.5,2.1v10.8c0,1.4-0.7,2.3-2.5,2.3h-35.3c-1.6,0-2.5,0.6-2.5,2.1v54.1"/>
		<path class="st0" d="M215.3,86.3l0.1,29.5c-0.2,7.3,0.8,13.4,2.8,18.2c2,4.8,7,7.2,14.8,7.2c3,0,6.7-0.6,11.1-1.8
			c4.4-1.2,9.5-3,15.2-5.4c0.2,0.6,0.3,1.1,0.3,1.5c0,0.3,0.1,0.7,0.2,1.1c-3.2,3.1-9,6.2-17.5,9.2c-8.5,3-16.1,4.6-23,4.6
			c-5.9,0-11-1.8-15.2-5.4c-4.2-3.6-6.3-9.9-6.3-18.8v-12.4l0.7-19.2"/>
		<g>
			<path class="st0" d="M85.3,79.6V114c0,6.1,2.3,11.3,7.1,15.7c4.8,4.4,10.3,6.5,17.2,6.5c6.7,0,12.4-2.1,17-6.5
				c4.8-4.4,7.3-9.6,7.3-15.7V44c0-1.5,0.7-2.1,2.3-2.1h11.9c1.6,0,2.5,0.6,2.5,2.1v70c0,10.3-4.1,19.1-12.2,26.4
				s-17.7,11.1-28.9,11.1c-11.2,0-21.1-3.8-29.1-11.1c-8-7.3-11.9-16.1-11.9-26.4V79.6H85.3z"/>
			<path class="st1" d="M85.3,44.6c0-2.4-1.9-3.9-3.5-3.9c-2.4,0-9.5,1.1-13.3,1.1c-11.6,0-12.8-0.4-15.2-0.4
				c-1.9,0-3.6,1.3-3.6,3.7s1.7,3.9,3.6,3.9c2.4,0,3.6-0.9,15.2-0.9l0,31.5h16.8L85.3,44.6L85.3,44.6z"/>
		</g>
		<g>
			<path class="st1" d="M15.1,31.8C6.4,31.8,0,23.1,0,15.1C0,7.5,7.5,0,15.1,0c8.1,0,16.4,6.7,16.4,15.1
				C31.5,24.5,24.5,31.8,15.1,31.8z"/>
			<path class="st0" d="M28.2,75.6v70.8c0,1.5-0.8,2.3-2.3,2.3H15.2c-1.7,0-2.3-0.8-2.3-2.3V85.8L28.2,75.6z"/>
			<polygon class="st1" points="28.2,75.6 28.2,41.4 1.3,41.4 1.3,55.2 12.9,55.2 12.9,85.8 			"/>
		</g>
	</g>
</g>
</svg>
