<svg width="252" height="78" viewBox="0 0 252 78" fill="none" xmlns="http://www.w3.org/2000/svg">
<path d="M87.9693 69.785C87.9693 70.4814 87.7179 71.0695 87.2023 71.5864C86.6778 72.1099 86.0934 72.3516 85.3637 72.3516H80.6639V65.655H84.9957C85.7938 65.655 86.4906 66.0072 87.068 66.5831C87.6741 67.1901 87.9693 67.9395 87.9693 68.7498V69.785ZM80.6639 55.6101H84.4959C85.1838 55.6101 85.6486 55.8502 86.0997 56.3007C86.5673 56.768 86.7673 57.2757 86.7673 57.9323C86.7673 58.7554 86.5512 59.2856 86.0447 59.8128C85.585 60.2932 84.9589 60.4804 84.1276 60.4804H80.6639V55.6101ZM90.4039 62.6686C91.4254 61.3253 91.9419 59.7437 91.9419 57.9606C91.9419 55.9437 91.2038 54.1277 89.7518 52.6754C88.3422 51.2259 86.5737 50.4354 84.4959 50.4354H77.2133C76.1921 50.4354 75.4893 51.2603 75.4893 52.2825V75.7973C75.4893 76.8034 76.2076 77.5263 77.2133 77.5263H85.3637C87.4893 77.5263 89.3318 76.7653 90.8391 75.258C92.3687 73.7296 93.144 71.8905 93.144 69.785V68.7498C93.144 67.2077 92.7163 65.7512 91.8735 64.425C91.4619 63.7559 90.9685 63.1666 90.4039 62.6686Z" fill="white"/>
<path d="M110.494 68.8824C110.494 70.0175 110.136 70.8713 109.326 71.6557C108.54 72.4426 107.634 72.8252 106.555 72.8252C105.476 72.8252 104.549 72.4389 103.75 71.6405C102.963 70.8789 102.58 70.0026 102.58 68.8824V59.2965C102.58 58.18 102.968 57.2885 103.766 56.49C104.528 55.7263 105.445 55.355 106.547 55.355C107.65 55.355 108.56 55.7263 109.322 56.4903C110.121 57.2875 110.494 58.1794 110.494 59.2965V68.8824ZM112.998 52.8519C111.226 51.0786 109.06 50.1791 106.555 50.1791C104.05 50.1791 101.865 51.0786 100.093 52.8519C98.3209 54.6241 97.4053 56.7929 97.4053 59.2965V68.8824C97.4053 71.386 98.3215 73.5548 100.093 75.3276C101.866 77.1007 104.043 77.9999 106.548 77.9999C109.053 77.9999 111.222 77.1007 112.994 75.3276C114.767 73.5548 115.669 71.386 115.669 68.8824V59.2965C115.669 56.7929 114.771 54.6241 112.998 52.8519Z" fill="white"/>
<path d="M156.762 68.6484C156.762 69.6989 156.438 70.5229 155.684 71.2528C154.934 72.0037 154.132 72.3516 153.105 72.3516H149.761V55.6101H152.235C153.521 55.6101 154.544 56.1023 155.417 57.0024C156.339 57.9238 156.762 59.0296 156.762 60.2658V68.6484ZM152.235 50.4354H146.424C145.402 50.4354 144.586 51.2603 144.586 52.2825V75.7973C144.586 76.8034 145.418 77.5263 146.424 77.5263H153.105C155.541 77.5263 157.627 76.6533 159.358 74.924C161.087 73.1939 161.936 71.0845 161.936 68.6484V60.2658C161.936 57.6063 160.996 55.236 159.091 53.3305C157.206 51.446 154.918 50.4354 152.235 50.4354Z" fill="white"/>
<path d="M169.226 77.5263H181.251C182.256 77.5263 182.939 76.8034 182.939 75.7973V74.0928C182.939 73.0867 182.256 72.3516 181.251 72.3516H172.59V65.655H179.814C180.785 65.655 181.417 64.996 181.417 64.0064V62.3034C181.417 61.2803 180.816 60.4804 179.814 60.4804H172.59V55.6101H181.017C182.006 55.6101 182.635 54.976 182.635 53.9859V52.2825C182.635 51.2771 182.023 50.4354 181.017 50.4354H169.226C168.204 50.4354 167.415 51.2603 167.415 52.2825V75.7973C167.415 76.8034 168.22 77.5263 169.226 77.5263Z" fill="white"/>
<path d="M195.43 64.1331L197.335 57.679L199.259 64.1331H195.43ZM200.537 51.6932C200.29 50.952 199.664 50.4354 198.904 50.4354H195.765C194.994 50.4354 194.381 50.9502 194.124 51.726L186.99 75.0839C186.896 75.2899 186.849 75.5313 186.849 75.7797C186.849 76.7857 187.579 77.5263 188.583 77.5263H190.354C191.158 77.5263 191.824 76.9556 192.007 76.2247L194.116 69.3077H200.551L202.643 76.2719L202.676 76.3976C202.95 77.084 203.562 77.5263 204.317 77.5263H206.087C207.076 77.5263 207.823 76.7833 207.823 75.7937C207.823 75.5435 207.774 75.286 207.696 75.1265L200.537 51.6932Z" fill="white"/>
<path d="M227.124 50.4354H225.421C224.415 50.4354 223.729 51.2771 223.729 52.2825V69.4493C223.729 70.43 223.401 71.1825 222.738 71.8226C222.064 72.4971 221.277 72.8253 220.355 72.8253C219.421 72.8253 218.688 72.5026 217.989 71.8059C217.337 71.1749 217.032 70.3828 217.032 69.4493V52.2825C217.032 51.2603 216.255 50.4354 215.235 50.4354H213.53C212.524 50.4354 211.857 51.2771 211.857 52.2825V69.4493C211.857 71.7979 212.668 73.8319 214.33 75.4951C215.993 77.1574 218.012 77.9999 220.36 77.9999C222.708 77.9999 224.758 77.1543 226.428 75.4838C228.062 73.8109 228.903 71.7809 228.903 69.4493V52.2825C228.903 51.2603 228.145 50.4354 227.124 50.4354Z" fill="white"/>
<path d="M233.275 75.1645C233.037 75.959 233.319 76.5516 233.508 76.8043C233.693 77.0554 234.124 77.5263 234.921 77.5263H236.69C237.379 77.5263 237.965 77.0855 238.248 76.4554L242.209 69.1835L246.158 76.4417C246.451 77.098 247.038 77.5263 247.728 77.5263H249.498C250.291 77.5263 250.722 77.056 250.908 76.8055C251.099 76.5516 251.38 75.9836 251.131 75.153L245.04 63.9921L251.068 52.9503L251.182 52.6325C251.342 51.9038 251.104 51.3751 250.873 51.0874C250.687 50.8555 250.262 50.4354 249.512 50.4354H247.775C247.06 50.4354 246.462 50.8607 246.23 51.4545L242.209 58.8019L238.206 51.488C237.957 50.8531 237.359 50.4354 236.643 50.4354H234.907C234.154 50.4354 233.731 50.8549 233.545 51.0859C233.314 51.373 233.074 51.884 233.251 52.6611L233.372 52.9823L239.378 63.9757L233.37 74.9317L233.275 75.1645Z" fill="white"/>
<path d="M133.02 59.4975C133.02 60.1769 132.801 60.7199 132.287 61.234C131.771 61.7494 131.262 62.0023 130.582 62.0023H126.323V55.6101H130.582C131.257 55.6101 131.809 55.8904 132.264 56.3455C132.795 56.8995 133.02 57.4821 133.02 58.1615V59.4975ZM138.194 59.4975V58.1615C138.194 56.056 137.443 54.1801 135.958 52.6955C134.497 51.2332 132.688 50.4354 130.582 50.4354H123C121.979 50.4354 121.148 51.2603 121.148 52.2825V75.7973C121.148 76.8034 121.995 77.5263 123 77.5263H124.705C125.694 77.5263 126.323 76.7869 126.323 75.7973V67.177H129.197L134.047 76.4585C134.34 77.1208 134.929 77.5263 135.622 77.5263H137.393C138.188 77.5263 138.619 77.063 138.803 76.8128C138.993 76.5577 139.275 75.9909 139.037 75.1995C139.03 75.1782 139.022 75.1462 139.011 75.1262L134.305 66.1542C134.894 65.816 135.448 65.3862 135.958 64.877C137.443 63.3919 138.194 61.5801 138.194 59.4975Z" fill="white"/>
<path d="M55.7039 56.9061C55.7039 56.3841 55.826 55.9412 56.1894 55.5774C56.5531 55.1982 56.9778 55.0241 57.4995 55.0241C58.0057 55.0241 58.4361 55.1982 58.816 55.5774C59.1956 55.9412 59.3566 56.3841 59.3566 56.9061V59.3105C59.3566 59.8322 59.1785 60.2751 58.799 60.6547C58.4349 61.0185 57.9896 61.2081 57.4678 61.2081C56.9461 61.2081 56.5544 61.0185 56.1906 60.6547C55.8272 60.2751 55.7039 59.8322 55.7039 59.3105V56.9061ZM57.4654 62.3626C58.1619 62.3626 58.7944 62.1417 59.3794 61.6826C59.3956 61.651 59.4333 61.651 59.4808 61.651C59.5916 61.651 59.661 61.6985 59.661 61.8251V61.9672C59.661 62.078 59.6957 62.0025 59.8226 62.0025H60.344C60.4552 62.0025 60.5742 62.078 60.5742 61.9672V50.8329C60.5742 50.7063 60.4552 50.7401 60.344 50.7401H59.5216C59.4111 50.7401 59.3566 50.7063 59.3566 50.8329V54.2171C59.3566 54.3124 59.3049 54.3599 59.1944 54.3599C59.1304 54.3599 59.0973 54.3437 59.0653 54.3282C58.5914 54.012 58.052 53.8695 57.4666 53.8695C56.6283 53.8695 55.9371 54.1541 55.3517 54.7553C54.7505 55.3565 54.4863 56.0678 54.4863 56.9061V59.3105C54.4863 60.1482 54.7499 60.8605 55.3511 61.4613C55.9526 62.0622 56.6271 62.3626 57.4654 62.3626Z" fill="white"/>
<path d="M63.618 56.7635C63.618 56.2893 63.8073 55.8781 64.1552 55.5301C64.4873 55.1819 64.9064 55.0239 65.3801 55.0239C65.8552 55.0239 66.3414 55.1819 66.6896 55.5301C67.0369 55.8781 67.2707 56.2893 67.2707 56.7635V57.3014C67.2707 57.4122 67.0804 57.4366 66.969 57.4366H63.8222C63.7114 57.4366 63.618 57.4122 63.618 57.3014V56.7635ZM62.4004 59.2943C62.4004 60.1481 62.7474 60.8603 63.3489 61.4612C63.9497 62.0621 64.6848 62.3625 65.5228 62.3625C66.4397 62.3625 67.2743 62.1096 67.9857 61.5878C68.0809 61.5242 68.1029 61.4293 68.0392 61.3504L67.5677 60.6701C67.5044 60.5913 67.4265 60.5754 67.3477 60.6384C66.8098 61.0183 66.2092 61.208 65.5454 61.208C65.023 61.208 64.5661 61.0183 64.1869 60.6384C63.8231 60.275 63.618 59.8321 63.618 59.2943V58.8042C63.618 58.6931 63.7114 58.6541 63.8222 58.6541H68.1242C68.235 58.6541 68.1838 58.5668 68.1838 58.456V56.7635C68.1838 55.9727 67.9647 55.293 67.3952 54.7232C66.8256 54.154 66.17 53.8694 65.363 53.8694C64.5722 53.8694 63.8581 54.154 63.2892 54.7077C62.7194 55.2772 62.4004 55.9572 62.4004 56.7635V59.2943Z" fill="white"/>
<path d="M161.678 12.0645C162.538 12.0645 163.281 11.7476 163.829 11.148C164.42 10.6071 164.745 9.86282 164.745 9.04948C164.745 8.19049 164.429 7.44747 163.829 6.89896C163.304 6.32457 162.581 6.03357 161.678 6.03357C160.823 6.03357 160.097 6.33248 159.579 6.89865C158.979 7.44747 158.662 8.19049 158.662 9.04948C158.662 9.86312 158.988 10.6074 159.579 11.1483C160.12 11.7394 160.865 12.0645 161.678 12.0645Z" fill="white"/>
<path d="M163.036 16.0393H160.373C159.476 16.0393 159.197 16.5699 159.197 16.9354V42.4219C159.197 43.0669 159.727 43.4346 160.373 43.4346H163.036C163.653 43.4346 164.068 43.0383 164.068 42.4219V16.9354C164.068 16.3318 163.672 16.0393 163.036 16.0393Z" fill="white"/>
<path d="M195.42 25.1947C195.42 23.74 195.917 22.5127 196.995 21.4351C197.977 20.4063 199.173 19.9062 200.674 19.9062C202.164 19.9062 203.447 20.4087 204.481 21.4424C205.515 22.4771 206.074 23.7044 206.074 25.1947V26.9699C206.074 27.0286 206.006 27.0195 206.001 27.0384C205.989 27.0405 205.91 26.9973 205.885 26.9973H195.493C195.428 26.9973 195.419 27.0295 195.415 27.0262C195.41 27.0207 195.42 27.0344 195.42 26.9699V25.1947ZM201.185 44.1388C204.34 44.1388 207.154 43.2478 209.533 41.5028C209.797 41.3274 209.965 41.08 210.008 40.8063C210.049 40.5451 209.973 40.2779 209.812 40.0779L208.227 37.8081C207.96 37.4735 207.664 37.4035 207.463 37.4035C207.252 37.4035 207.041 37.4833 206.877 37.6166C205.186 38.8086 203.271 39.4131 201.185 39.4131C199.591 39.4131 198.267 38.8421 197.092 37.6668C195.952 36.5256 195.42 35.179 195.42 33.5499V31.9312C195.42 31.8666 195.41 31.8621 195.413 31.8575C195.419 31.8532 195.428 31.8675 195.493 31.8675H209.698C210.302 31.8675 210.64 31.418 210.64 30.7818V25.1947C210.64 22.4347 209.682 20.0593 207.756 18.1334C205.797 16.1737 203.413 15.1802 200.653 15.1802C197.949 15.1802 195.531 16.1545 193.549 18.0813C191.588 20.0425 190.55 22.436 190.55 25.1947V33.5499C190.55 36.4876 191.617 38.934 193.71 41.0282C195.775 43.0923 198.323 44.1388 201.185 44.1388Z" fill="white"/>
<path d="M199.16 8.59167C199.173 8.57645 199.186 8.56031 199.197 8.54327C199.323 8.35333 199.353 8.1917 199.36 8.05411C199.421 7.93996 199.478 7.82216 199.534 7.70589C199.608 7.55156 199.678 7.40484 199.752 7.28583C199.79 7.25417 199.822 7.24017 199.88 7.21551C199.941 7.18964 200.017 7.15707 200.1 7.10228C200.247 7.00487 200.325 6.84872 200.3 6.6743C200.307 6.59577 200.435 6.38483 200.504 6.27159C200.578 6.14892 200.649 6.03204 200.699 5.91424C200.834 5.71912 200.881 5.50422 200.92 5.32768C200.948 5.1977 200.974 5.07503 201.001 5.04733C201.372 4.72193 201.514 4.45985 201.663 4.12928C201.859 4.02762 202.023 3.86172 202.122 3.74636C202.171 3.68944 202.205 3.62125 202.221 3.54759L202.242 3.4508C202.317 3.11109 202.394 2.76074 202.52 2.48679C202.52 2.48679 202.521 2.48587 202.522 2.48557C202.589 2.45969 202.65 2.41769 202.699 2.36259C202.927 2.10569 203.049 1.80221 203.156 1.53404C203.235 1.33618 203.311 1.14807 203.411 1.02723C203.527 0.967567 203.744 0.911254 203.968 0.911254C204.048 0.911254 204.119 0.918864 204.161 0.928909C204.68 1.07745 205.266 1.28687 205.716 1.89444C205.698 2.65572 205.007 3.27181 204.338 3.86842C204.141 4.04405 203.954 4.20995 203.783 4.38132C203.771 4.39319 203.76 4.40598 203.749 4.41907C203.493 4.7402 203.239 5.1283 202.971 5.53923C202.675 5.99216 202.37 6.46031 202.077 6.80306C201.712 7.12663 201.309 7.63557 200.918 8.12808C200.558 8.58193 200.186 9.0516 199.909 9.28933C199.834 9.35356 199.782 9.4394 199.761 9.53376C199.717 9.60864 199.584 9.7788 199.463 9.91334C199.424 9.95747 199.393 10.0092 199.373 10.0652C199.278 10.3307 199.244 10.3486 199.131 10.408C199.044 10.4542 198.924 10.5173 198.788 10.6347C198.779 10.6421 198.771 10.6497 198.763 10.6576C198.479 10.9419 198.169 11.0344 197.97 10.8847C197.962 10.8783 197.952 10.8722 197.943 10.8664C197.931 10.8579 197.922 10.8527 197.917 10.8113C197.864 10.4314 198.421 9.43575 199.16 8.59167ZM197.434 11.6243C197.654 11.785 197.915 11.8703 198.191 11.8703C198.485 11.8703 198.93 11.7738 199.394 11.3178C199.448 11.2737 199.495 11.249 199.558 11.2155C199.805 11.0852 200.011 10.944 200.201 10.4579C200.428 10.1979 200.543 10.0199 200.602 9.89386C200.92 9.59586 201.268 9.15723 201.634 8.69546C202.008 8.22396 202.394 7.73633 202.701 7.46998C202.717 7.45568 202.733 7.44046 202.747 7.42432C203.087 7.03257 203.417 6.52698 203.736 6.03843C203.986 5.6555 204.222 5.29297 204.447 5.00928C204.596 4.86195 204.765 4.71037 204.945 4.55026C205.732 3.84924 206.711 2.97655 206.624 1.71363C206.619 1.63449 206.593 1.55809 206.549 1.49173C205.949 0.591033 205.167 0.267161 204.397 0.0470859C203.924 -0.0710181 203.239 0.0416072 202.867 0.289382C202.843 0.305819 202.819 0.324995 202.798 0.346302C202.548 0.596208 202.421 0.914298 202.309 1.19464C202.236 1.37606 202.167 1.54865 202.075 1.68106C201.947 1.7532 201.844 1.86431 201.769 1.96384C201.752 1.98606 201.737 2.0098 201.724 2.03476C201.539 2.40673 201.441 2.84018 201.357 3.22676C201.321 3.26085 201.282 3.29373 201.255 3.31138C201.104 3.33513 200.972 3.43436 200.908 3.57773L200.887 3.62552C200.731 3.97952 200.667 4.12594 200.377 4.38132C200.14 4.61875 200.075 4.91583 200.027 5.13317C200.004 5.23879 199.978 5.35842 199.944 5.3989C199.908 5.44243 199.88 5.49265 199.863 5.54623C199.846 5.59432 199.775 5.71182 199.723 5.79766C199.612 5.9809 199.483 6.19306 199.423 6.42014C199.326 6.46701 199.205 6.53854 199.076 6.6673C199.055 6.68891 199.035 6.71266 199.018 6.73792C198.899 6.9166 198.803 7.11689 198.71 7.31079C198.647 7.4432 198.583 7.57835 198.51 7.70528C198.47 7.77438 198.449 7.8526 198.449 7.93236C198.449 7.96371 198.451 7.99019 198.439 8.02885C198.108 8.4136 196.871 9.92673 197.012 10.9379C197.053 11.2298 197.199 11.4666 197.434 11.6243Z" fill="white"/>
<path d="M116.277 16.9524H122.365V18.931C122.365 19.183 122.57 19.3875 122.822 19.3875H122.963C123.123 19.3875 123.271 19.3044 123.353 19.1684C124.662 17.0197 125.553 16.3299 127.02 16.3299C128.621 16.3299 130.492 17.1314 130.492 19.3906C130.492 20.4139 129.966 21.609 128.484 21.609C127.632 21.609 126.638 21.1847 126.638 19.9887C126.638 18.9239 127.556 18.5209 128.342 18.4996C128.52 18.4948 128.68 18.3858 128.75 18.2211C128.819 18.0564 128.786 17.8662 128.666 17.7347C128.177 17.2023 127.506 17.1341 126.977 17.1341C125.613 17.1341 124.447 17.7511 123.607 18.9185C122.925 19.8657 122.517 21.1478 122.517 22.3426L122.553 26.77L119.448 30.2388L119.474 19.7723C119.474 18.4424 118.806 18.17 117.804 18.17H116.277V16.9524ZM115.821 19.0831H117.804C118.511 19.0831 118.713 19.1279 118.713 19.7756V42.475C118.713 43.0914 119.067 43.4345 119.684 43.4345H122.348C122.964 43.4345 123.278 43.0914 123.278 42.475V26.9718L123.381 22.3474C123.381 20.6191 124.436 18.208 126.72 18.0552C126.083 18.4805 125.712 19.1653 125.712 19.9887C125.712 21.4802 126.853 22.5222 128.477 22.5222C130.198 22.5222 131.402 21.2346 131.402 19.3906C131.402 16.6456 129.203 15.4167 127.02 15.4167C125.355 15.4167 124.295 16.2094 123.278 17.619V16.4958C123.278 16.2435 123.074 16.0392 122.822 16.0392H115.821C115.569 16.0392 115.364 16.2435 115.364 16.4958V18.6266C115.364 18.8786 115.569 19.0831 115.821 19.0831Z" fill="white"/>
<path d="M149.122 17.5024C150.275 17.3895 151.219 16.648 151.825 15.4304H153.11V28.2148H151.558C151.114 25.1709 149.911 22.5111 147.891 20.423L149.122 17.5024ZM133.639 41.353C136.855 43.3032 140.484 44.2922 144.426 44.2922C146.748 44.2922 148.805 43.4405 150.546 41.756C152.263 40.0377 153.134 37.9612 153.134 35.5839C153.134 33.7447 152.559 32.0368 151.419 30.4987C150.221 28.9585 148.68 27.9372 146.842 27.4651L141.361 26.0031C139.844 25.5898 139.138 24.6845 139.138 23.1543C139.138 22.2619 139.419 21.5474 139.997 20.97C140.617 20.3488 141.328 20.0596 142.233 20.0596C143.956 20.0596 145.592 20.3481 147.1 20.9137C149.143 22.9662 150.323 25.5252 150.703 28.7165C150.731 28.946 150.925 29.128 151.157 29.128H153.694C153.946 29.128 154.023 28.9055 154.023 28.6535V14.8505C154.023 14.5985 153.946 14.5172 153.694 14.5172H151.528C151.343 14.5172 151.176 14.5674 151.105 14.7382C150.608 15.946 149.856 16.5365 148.875 16.5636C146.801 15.7695 144.567 15.3494 142.233 15.3494C140.031 15.3494 138.217 16.0857 136.687 17.6162C135.156 19.1467 134.412 20.9572 134.412 23.158C134.412 24.8583 134.935 26.4077 135.968 27.7668C137.036 29.1722 138.437 30.1054 140.128 30.5413L145.655 32.0535C146.541 32.3141 147.144 32.7128 147.609 33.3469C148.14 34.0704 148.409 34.8229 148.409 35.5839C148.409 36.6718 148.015 37.6172 147.237 38.3943C146.448 39.183 145.528 39.5662 144.426 39.5662C141.406 39.5662 138.568 38.7967 135.988 37.2787C135.979 37.2732 135.97 37.2684 135.96 37.2638C135.37 36.9685 134.878 37.1204 134.626 37.6093L133.272 39.8995C133.101 40.1978 133.049 40.4791 133.119 40.7351C133.187 40.9868 133.366 41.1965 133.639 41.353Z" fill="white"/>
<path d="M58.4434 6.90744H61.4874V10.8645H58.4434V6.90744ZM62.0962 6.45085C62.0962 6.19851 61.8919 5.99426 61.6396 5.99426H57.9869C57.7348 5.99426 57.5303 6.19851 57.5303 6.45085V11.3211C57.5303 11.5735 57.7348 11.7777 57.9869 11.7777H61.6396C61.8919 11.7777 62.0962 11.5735 62.0962 11.3211V6.45085Z" fill="white"/>
<path d="M55.3995 18.1202C58.5691 17.8404 60.2512 17.5056 61.6003 15.1262H61.8834C61.5564 17.5023 61.4228 19.9965 61.4103 23.9536H58.5101C58.5092 20.6052 58.476 20.4762 58.3448 20.1328C58.3348 20.1066 58.3241 20.0403 58.3101 19.9992C57.8648 18.7192 56.4353 18.5065 55.3995 18.4824V18.1202ZM54.9724 19.3919C56.0235 19.3919 57.1686 19.4592 57.4456 20.2555C57.4624 20.3051 57.4441 20.3453 57.4584 20.3827C57.5391 20.5931 57.5302 24.2579 57.5302 24.2579V42.481C57.5302 43.1263 57.9826 43.4346 58.6282 43.4346H61.2919C61.9083 43.4346 62.4005 43.0974 62.4005 42.481V24.4101C62.4005 19.9782 62.5077 17.3568 62.9006 14.7372C62.9204 14.6057 62.8428 14.4724 62.756 14.3716C62.6693 14.2708 62.543 14.213 62.41 14.213H61.3297C61.1604 14.213 61.0049 14.3068 60.9257 14.4565C59.7267 16.7288 58.4422 16.9477 54.9043 17.2463C54.6681 17.2664 54.4863 17.4642 54.4863 17.7013V18.9353C54.4863 19.1877 54.7204 19.3919 54.9724 19.3919Z" fill="white"/>
<path d="M85.5346 18.1575C85.5839 18.0177 85.5623 17.8628 85.4768 17.7417C85.3909 17.6208 85.2521 17.5487 85.1039 17.5487C83.9152 17.5487 83.4787 17.5712 83.1603 17.5876C83.0017 17.5959 82.8797 17.6022 82.7013 17.6022C82.536 17.6022 82.3035 17.4458 82.3035 17.0976C82.3035 16.8075 82.5385 16.6471 82.7013 16.6471C82.8091 16.6471 82.8949 16.6815 83.0508 16.7092C83.49 16.7874 84.3076 16.9524 86.9722 16.9524H87.1327C89.6606 16.9524 90.5662 16.7892 91.0529 16.7119C91.2334 16.6833 91.3427 16.6565 91.4571 16.6565C91.5783 16.6565 91.8011 16.8227 91.8011 17.1024C91.8011 17.4339 91.5771 17.6022 91.4571 17.6022C91.2757 17.6022 91.1598 17.5955 91.0106 17.5873C90.7205 17.5712 90.323 17.5487 89.2138 17.5487C89.0217 17.5487 88.85 17.6692 88.7843 17.85L86.3394 24.6045L83.9146 22.7431L85.5346 18.1575ZM76.5858 42.8482C76.7839 43.439 77.1227 43.7388 77.5936 43.7388H79.7347C80.1709 43.7388 80.5572 43.3946 80.7389 42.8509L89.5337 18.4628C90.3769 18.4664 90.7096 18.485 90.9595 18.4993C91.1257 18.5084 91.2553 18.5154 91.4571 18.5154C92.0641 18.5154 92.7143 17.9459 92.7143 17.0976C92.7143 16.2818 92.0641 15.7339 91.4571 15.7339C91.2706 15.7339 91.1114 15.7783 90.9095 15.8103C90.4478 15.8833 89.5885 16.0392 87.1327 16.0392H86.9722C84.3883 16.0392 83.6224 15.8833 83.2109 15.8103C83.0316 15.7783 82.8894 15.7433 82.7013 15.7433C81.9784 15.7433 81.3903 16.3503 81.3903 17.1024C81.3903 17.9782 82.0706 18.5179 82.7013 18.5179C82.8983 18.5179 83.0328 18.5099 83.2072 18.5008C83.4504 18.4883 83.7649 18.4716 84.4577 18.4652L78.6639 34.5404L72.2162 16.8242C71.994 16.3034 71.6245 16.0392 71.118 16.0392H68.2972C67.8662 16.0392 67.5572 16.1725 67.3788 16.4358C67.2008 16.6988 67.1916 17.0346 67.3463 17.4202L76.5858 42.8482Z" fill="white"/>
<path d="M97.4568 35.2499C98.2041 37.2154 99.4895 38.7678 101.279 39.8664C103.672 41.3347 106.214 41.5542 107.515 41.5542C109.904 41.5542 111.478 41.0233 112.431 40.6094C111.04 41.6102 107.936 43.3574 104.687 43.3574C101.672 43.3574 94.7833 42.3283 94.3648 33.0322L97.4568 35.2499ZM98.0141 25.2422C98.0141 23.7884 98.6062 22.5614 99.6828 21.4841C100.665 20.455 101.908 19.9546 103.41 19.9546C104.9 19.9546 106.112 20.4574 107.146 21.492C108.181 22.5267 108.668 23.7534 108.668 25.2422V26.9973H98.0141V25.2422ZM97.2662 41.8674C99.6852 43.8536 102.637 44.2706 104.691 44.2706C109.167 44.2706 114.029 41.0313 114.029 40.193C114.029 39.3267 113.411 39.2828 113.288 39.2828C113.105 39.2828 112.935 39.3644 112.626 39.513C111.865 39.8791 110.281 40.641 107.515 40.641C106.31 40.641 103.959 40.4392 101.757 39.088C100.117 38.0817 98.8756 36.6508 98.2062 34.8369C98.1274 34.4436 98.0141 34.0281 98.0141 33.5992V31.9805C98.0141 31.9153 98.0993 31.8861 98.1018 31.8815C98.1079 31.8776 98.2117 31.8675 98.2765 31.8675H112.482C113.085 31.8675 113.538 31.467 113.538 30.8311V25.2422C113.538 22.4831 112.523 20.1083 110.598 18.1827C108.638 16.2224 106.225 15.2283 103.465 15.2283C100.761 15.2283 98.3855 16.2032 96.4042 18.13C94.4436 20.0906 93.4482 22.4831 93.4482 25.2422V32.1284C93.4482 36.5065 94.7273 39.783 97.2662 41.8674Z" fill="white"/>
<path d="M173.559 17.9818C173.64 17.9818 173.72 17.9602 173.791 17.9188C174.409 17.5551 174.601 16.3451 174.862 14.4013C174.995 13.4135 175.177 12.0605 175.415 11.7713C175.546 11.6182 175.936 11.3269 176.313 11.0454C176.459 10.9358 176.614 10.8204 176.769 10.7014C176.762 11.1973 176.727 11.866 176.696 12.4495C176.513 15.9732 176.526 17.5326 177.417 17.6732C179.269 18.0001 180.936 18.1587 182.512 18.1587C184.322 18.1587 186.005 17.9383 187.518 17.5033C187.502 17.5944 187.414 17.7426 187.2 18.0269C187.147 18.0972 187.096 18.1657 187.051 18.2311C185.558 19.5881 183.726 19.7723 182.127 19.7723C181.466 19.7723 180.772 19.7364 180.101 19.7017C179.234 19.6572 178.409 19.6113 177.526 19.6359C177.279 19.6432 177.156 19.8453 177.156 20.0925V22.8552L174.112 21.8495V20.1424C174.112 19.9038 173.927 19.7053 173.688 19.6871C173.374 19.663 173.052 19.6508 172.733 19.6508C171.943 19.6508 170.835 19.7257 169.784 20.0548C170.47 18.8287 171.971 17.9818 173.559 17.9818ZM168.865 20.7652L169.217 21.0172C169.343 21.1076 169.508 21.1274 169.652 21.0699C170.697 20.652 171.906 20.564 172.735 20.564C172.889 20.564 172.895 20.567 173.199 20.5734V34.188C173.199 37.0212 174.181 39.3818 176.204 41.4048C178.226 43.4278 180.586 44.4113 183.42 44.4113C185.875 44.4113 188.108 43.6969 190.044 42.2976C190.305 42.1244 190.462 41.908 190.513 41.655C190.563 41.4018 190.501 41.1412 190.32 40.8709L188.805 38.7292C188.798 38.7192 188.791 38.7094 188.783 38.7003C188.623 38.5088 188.366 38.2543 187.974 38.2543C187.784 38.2543 187.592 38.3134 187.354 38.4501C186.052 39.2698 184.728 39.6853 183.419 39.6853C181.859 39.6853 180.654 39.1654 179.585 38.0955C178.515 37.0261 178.069 35.748 178.069 34.188V20.5421C178.678 20.5433 179.426 20.5777 180.128 20.6139C180.811 20.6489 181.479 20.6855 182.164 20.6855C183.953 20.6855 185.996 20.4693 187.727 18.8673C187.753 18.8427 187.767 18.8156 187.787 18.7854C187.831 18.7188 187.88 18.6488 187.935 18.576C188.221 18.1961 188.887 17.3073 187.981 16.61C187.863 16.5192 187.706 16.4915 187.565 16.536C186.059 17.0069 184.358 17.2455 182.512 17.2455C181.018 17.2455 179.435 17.0973 177.669 16.7902C177.412 16.2666 177.539 13.8281 177.609 12.497C177.711 10.5382 177.727 9.87894 177.53 9.56816C177.459 9.45614 177.342 9.38065 177.211 9.36147C177.079 9.34169 176.946 9.38095 176.846 9.46771C176.513 9.75536 176.116 10.0521 175.766 10.3139C175.293 10.6676 174.919 10.9467 174.716 11.1836C174.334 11.6472 174.174 12.6626 173.957 14.2795C173.833 15.1991 173.631 16.6985 173.379 17.0717C171.281 17.1429 169.331 18.4543 168.7 20.242C168.632 20.4334 168.699 20.6468 168.865 20.7652Z" fill="white"/>
<path d="M7.42655 26.1527L5.85102 27.7742L4.56588 29.0977V19.2793C4.56588 19.0269 4.32236 18.7788 4.07033 18.7788H0.913175V16.9525H7.4302L7.42655 26.1527ZM22.1929 16.0393H19.4774C18.8556 16.0393 18.5679 16.3212 18.5679 16.943V34.3865C18.5679 35.7514 18.016 36.9608 16.9881 37.989C16.0548 38.9691 14.8482 39.4659 13.4365 39.4659C11.9973 39.4659 10.7536 38.9941 9.74084 37.9811C8.74122 36.9805 8.21858 35.8047 8.21858 34.3865V16.4253C8.21858 16.3041 8.23319 16.2232 8.14735 16.1376C8.06182 16.0521 8.00794 16.0393 7.88679 16.0393H0.417626C0.165285 16.0393 0 16.1726 0 16.425V19.2793C0 19.5316 0.165285 19.692 0.417626 19.692H3.6527V34.3865C3.6527 37.0764 4.59175 39.3992 6.48263 41.2901C8.40943 43.2157 10.7399 44.1919 13.4285 44.1919C16.0838 44.1919 18.3563 43.2157 20.2822 41.2901C22.2075 39.3639 23.1338 37.0414 23.1338 34.3865V16.943C23.1338 16.3394 22.8291 16.0393 22.1929 16.0393Z" fill="white"/>
<path d="M49.2128 34.5387C49.2314 38.3119 49.3848 40.5915 49.681 41.4946C49.7446 41.6885 49.9281 41.8197 50.1321 41.8091C51.0142 41.7753 51.9268 41.6036 52.9644 41.273V41.627C50.7893 42.199 48.9078 42.8772 46.9579 43.5968C46.6693 42.5804 46.4106 41.3738 46.4103 39.9383L46.3363 36.12L49.2128 34.5387ZM31.584 43.7389H34.2471C34.8927 43.7389 35.3097 43.2011 35.3097 42.5561V25.1117C35.3097 23.748 35.7937 22.5569 36.7793 21.5707C37.7793 20.5707 38.9469 20.0846 40.366 20.0846C41.7838 20.0846 42.9146 20.5707 43.9222 21.5786C44.9026 22.5119 45.3547 23.7005 45.3547 25.1117V35.7173C45.3547 35.7605 45.477 39.9471 45.477 39.9471C45.477 41.719 45.8532 43.1557 46.2115 44.3273C46.2483 44.4475 46.3381 44.5474 46.4508 44.6028C46.5144 44.6344 46.5865 44.6506 46.6559 44.6506C46.7095 44.6506 46.7643 44.6408 46.8154 44.6223C49.0107 43.8111 51.0848 43.0449 53.5327 42.4233C53.7352 42.3719 53.8776 42.1899 53.8776 41.9808V40.6353C53.8776 40.4868 53.8052 40.3474 53.6837 40.2619C53.562 40.176 53.4058 40.1553 53.2664 40.2058C52.2117 40.5857 51.3101 40.8012 50.4624 40.8737C50.2414 39.8068 50.2286 37.4709 50.2249 33.9183C50.2471 33.8641 50.2249 25.1117 50.2249 25.1117C50.2249 22.4555 49.2174 20.133 47.2918 18.2087C45.4018 16.3181 43.0635 15.3593 40.3736 15.3593C37.6831 15.3593 35.296 16.3181 33.4058 18.2087C31.4802 20.1333 30.4395 22.4558 30.4395 25.1117V42.5561C30.4395 43.1721 30.9673 43.7389 31.584 43.7389Z" fill="white"/>
</svg>
